<?xml version="1.0" standalone="no"?>
<!DOCTYPE svg PUBLIC "-//W3C//DTD SVG 20010904//EN"
 "http://www.w3.org/TR/2001/REC-SVG-20010904/DTD/svg10.dtd">
<svg version="1.0" xmlns="http://www.w3.org/2000/svg"
 width="1418.000000pt" height="1418.000000pt" viewBox="0 0 1418.000000 1418.000000"
 preserveAspectRatio="xMidYMid meet">
<metadata>
Created by potrace 1.14, written by Peter Selinger 2001-2017
</metadata>
<g transform="translate(0.000000,1418.000000) scale(0.100000,-0.100000)"
fill="#000000" stroke="none">
<path d="M2851 10458 c-34 -17 -87 -68 -188 -184 -16 -18 -67 -76 -208 -232
-22 -25 -47 -52 -55 -61 -68 -73 -96 -117 -118 -186 -4 -11 -8 -1172 -9 -2580
-3 -2515 -3 -2561 17 -2614 25 -68 39 -90 114 -168 138 -145 166 -176 285
-302 69 -72 139 -139 155 -147 38 -20 110 -25 150 -11 71 25 149 132 161 222
8 56 8 3642 0 3655 -3 5 -3 10 2 10 9 0 8 122 -1 146 -3 7 -2 14 2 14 8 0 7
124 -2 146 -3 7 -2 14 2 14 8 0 7 124 -2 146 -3 7 -2 14 2 14 8 0 7 1391 -1
1421 -3 11 -2 19 1 19 8 0 6 125 -2 146 -3 7 -2 14 2 14 8 0 7 124 -2 146 -3
7 -1 14 3 14 5 0 8 8 6 18 -2 9 -6 49 -9 87 -13 196 -165 322 -305 253z"/>
<path d="M10712 10459 c-106 -55 -150 -153 -148 -332 1 -59 -3 -107 -8 -107
-5 0 -4 -6 1 -12 10 -16 10 -588 -1 -606 -4 -7 -4 -12 1 -12 4 0 7 -136 6
-302 -2 -167 -3 -307 -3 -313 0 -5 1 -151 3 -323 1 -171 -2 -312 -6 -312 -5 0
-5 -6 -1 -12 11 -17 11 -568 0 -568 -5 0 -4 -6 1 -12 7 -11 10 -561 3 -578 -1
-3 -1 -9 0 -15 2 -5 4 -631 5 -1390 l2 -1380 21 -56 c52 -132 170 -197 275
-151 40 18 101 74 177 162 12 14 48 54 80 90 32 36 68 76 80 90 12 14 56 63
98 109 93 102 114 132 137 196 17 47 18 182 19 2560 1 1381 -2 2535 -5 2565
-13 105 -26 140 -74 195 -103 118 -495 523 -495 511 0 -5 -7 -3 -16 5 -23 19
-113 18 -152 -2z"/>
<path d="M1814 9404 c-39 -13 -68 -41 -244 -235 -41 -45 -88 -97 -105 -115
-70 -75 -159 -175 -172 -193 -16 -24 -41 -92 -49 -135 -8 -44 -7 -2792 1
-2845 11 -77 53 -153 152 -276 4 -6 28 -37 53 -70 25 -33 47 -62 50 -65 3 -3
30 -39 60 -80 30 -41 57 -77 60 -80 3 -3 29 -36 57 -75 86 -117 133 -150 195
-140 30 5 52 19 83 50 56 58 79 130 81 258 1 54 5 105 8 113 3 8 2 14 -2 14
-5 0 -7 19 -5 43 2 23 3 69 3 102 -2 357 -1 475 4 484 4 6 3 11 -1 11 -5 0 -8
19 -6 43 2 23 3 69 2 102 0 33 0 117 -1 187 0 69 3 131 6 137 4 6 3 11 -1 11
-5 0 -8 19 -6 43 2 23 3 69 2 102 0 33 0 117 -1 187 0 69 3 131 6 137 4 6 3
11 -1 11 -5 0 -8 19 -6 43 2 23 3 69 2 102 0 33 0 117 -1 187 0 69 3 131 6
137 4 6 3 11 -1 11 -5 0 -8 19 -6 43 5 77 5 129 -1 134 -3 3 -1 14 4 24 6 10
7 20 2 23 -4 2 -6 26 -4 53 3 54 3 47 1 169 -1 50 1 97 5 103 4 6 3 11 -1 11
-5 0 -8 19 -6 43 2 23 3 49 3 57 0 8 0 74 -1 147 -1 72 2 136 5 142 4 6 3 11
-1 11 -5 0 -8 19 -6 43 2 23 3 69 2 102 0 33 0 117 -1 187 0 69 3 131 6 137 4
6 4 11 -1 11 -4 0 -8 35 -8 78 -1 75 -21 172 -37 172 -4 0 -8 7 -8 15 0 11
-63 85 -73 85 -1 0 -16 4 -33 9 -21 6 -43 4 -70 -5z"/>
<path d="M11813 9331 c-49 -23 -87 -75 -111 -154 -16 -50 -17 -206 -17 -1993
1 -1852 2 -1941 20 -1994 43 -132 151 -197 234 -144 29 19 71 65 71 77 0 5 5
5 10 2 6 -3 10 -3 10 2 0 4 19 28 42 53 22 25 70 78 107 118 60 67 142 156
205 222 42 44 76 109 89 167 11 46 13 341 12 1448 -1 765 -5 1410 -9 1435 -10
53 -41 124 -70 161 -12 14 -31 39 -43 55 -77 103 -204 271 -211 279 -5 6 -22
29 -38 51 -16 22 -35 46 -42 54 -7 8 -34 44 -62 80 -47 63 -99 100 -138 100
-9 0 -36 -9 -59 -19z"/>
<path d="M5940 9137 c0 -4 -4 -6 -8 -3 -9 5 -136 -24 -183 -43 -15 -5 -29 -8
-32 -5 -2 2 -10 -2 -17 -11 -7 -8 -18 -15 -25 -15 -16 0 -99 -42 -103 -52 -2
-5 -8 -8 -12 -8 -14 0 -80 -47 -144 -103 -73 -63 -75 -66 -106 -106 -14 -18
-30 -38 -35 -44 -6 -7 -47 -66 -90 -132 -44 -66 -83 -122 -86 -125 -15 -12
-29 -50 -19 -50 5 0 10 -6 10 -12 0 -7 15 -29 33 -49 17 -20 46 -54 62 -75 53
-68 180 -191 236 -227 72 -48 154 -70 221 -62 29 4 59 7 66 8 6 0 12 4 12 10
0 5 6 7 13 4 6 -2 29 7 49 20 21 12 40 23 43 23 6 0 135 92 167 119 13 11 57
47 98 82 41 34 89 73 105 88 17 14 66 55 110 91 44 35 82 67 85 70 3 3 30 25
60 50 30 25 60 52 67 60 7 8 13 12 13 8 0 -4 10 3 23 15 12 12 44 40 71 62 27
22 59 49 72 60 24 21 33 29 109 90 28 21 52 42 55 45 15 15 129 110 133 110 3
0 19 12 35 28 16 15 40 36 53 47 14 11 28 25 31 31 5 8 -162 10 -582 10 -325
0 -590 -4 -590 -9z"/>
<path d="M7423 9107 c-27 -23 -80 -67 -118 -97 -105 -83 -106 -84 -129 -105
-12 -11 -66 -56 -121 -99 -55 -44 -102 -82 -105 -86 -3 -3 -18 -16 -35 -29
-16 -12 -48 -38 -70 -56 -43 -36 -181 -149 -205 -168 -87 -69 -116 -94 -123
-104 -4 -7 -12 -13 -17 -13 -5 0 -20 -10 -33 -22 -31 -29 -67 -59 -134 -111
-29 -23 -53 -45 -53 -49 0 -5 -5 -8 -10 -8 -9 0 -30 -17 -84 -65 -6 -5 -47
-37 -91 -71 -212 -161 -319 -206 -485 -208 -95 -1 -194 20 -230 49 -8 7 -25
16 -37 19 -13 4 -23 12 -23 17 0 5 -6 9 -12 9 -27 0 -159 127 -259 247 -44 54
-89 108 -100 121 -10 12 -19 24 -19 27 0 3 -10 15 -22 27 l-22 22 -505 -1
c-279 0 -524 -2 -546 -4 -55 -4 -156 -42 -207 -77 -95 -66 -164 -167 -194
-283 -15 -56 -17 -147 -17 -754 0 -379 3 -712 7 -740 27 -194 168 -348 366
-403 8 -2 281 -5 605 -7 325 -1 600 -5 613 -9 12 -4 22 -13 22 -20 0 -7 9 -22
20 -34 11 -12 20 -25 20 -30 0 -4 8 -17 17 -28 20 -23 40 -52 50 -74 4 -8 15
-24 25 -34 16 -18 19 -18 35 -4 54 46 92 77 228 188 83 66 168 136 189 153 92
75 132 108 146 120 8 8 35 29 59 48 25 19 52 41 62 49 52 46 77 63 135 96 148
82 251 101 370 65 70 -21 169 -74 220 -118 61 -52 152 -134 191 -170 22 -21
64 -58 93 -83 29 -25 58 -50 64 -55 6 -6 47 -40 91 -75 44 -36 82 -67 85 -70
3 -3 52 -44 110 -90 58 -47 114 -92 125 -102 18 -15 88 -71 125 -101 8 -7 35
-28 60 -47 25 -19 47 -37 50 -40 5 -6 81 -67 155 -125 21 -16 43 -35 49 -40 6
-6 27 -22 46 -35 19 -13 37 -27 40 -30 28 -30 39 -31 89 -9 28 12 51 25 51 29
0 3 6 7 13 7 24 0 143 90 223 168 54 53 114 129 180 228 l99 148 -100 96 c-55
53 -190 182 -299 287 -109 105 -232 223 -272 261 -89 85 -409 394 -509 490
-237 229 -454 437 -473 453 -40 35 -51 109 -22 145 83 103 104 128 198 235 62
69 92 101 212 227 223 233 406 350 620 395 97 20 171 25 377 24 l201 0 -60 89
c-72 107 -79 116 -144 181 -193 196 -417 292 -695 301 l-107 4 -49 -42z"/>
<path d="M7989 8364 c-84 -13 -195 -49 -220 -70 -8 -8 -20 -14 -26 -14 -11 0
-165 -111 -198 -143 -12 -12 -35 -34 -51 -48 -34 -30 -217 -225 -266 -283 -18
-22 -46 -52 -61 -67 -16 -16 -31 -43 -33 -61 -5 -31 1 -39 85 -121 50 -48 91
-90 91 -95 0 -8 980 -983 1219 -1212 89 -85 170 -158 179 -161 25 -9 1112 -4
1147 5 70 19 160 71 215 126 62 61 92 110 124 200 18 52 19 92 21 770 1 393
-2 735 -7 760 -16 85 -19 95 -49 151 -65 121 -189 215 -324 245 -24 6 -256 11
-840 19 -791 12 -927 12 -1006 -1z"/>
<path d="M780 7872 c-68 -11 -169 -118 -233 -248 -30 -59 -40 -88 -53 -139
-51 -216 7 -450 152 -613 89 -100 162 -124 249 -82 55 26 80 50 107 101 23 44
23 46 23 434 0 357 -2 393 -18 423 -51 93 -136 139 -227 124z"/>
<path d="M12835 7658 c-43 -15 -93 -65 -118 -118 -21 -44 -21 -57 -22 -420 l0
-375 27 -55 c48 -96 136 -140 230 -115 41 10 62 24 109 74 47 50 123 160 124
181 0 3 3 10 6 15 11 17 38 108 46 150 10 52 9 187 -1 250 -25 154 -139 340
-246 402 -39 22 -110 28 -155 11z"/>
<path d="M6135 6345 c-49 -24 -91 -48 -94 -52 -3 -5 -26 -24 -51 -43 -25 -19
-47 -37 -50 -40 -3 -3 -27 -23 -55 -45 -27 -22 -61 -50 -75 -62 -32 -28 -60
-51 -106 -88 -20 -16 -42 -35 -48 -40 -6 -6 -49 -42 -96 -80 -47 -38 -87 -72
-90 -75 -3 -3 -45 -38 -93 -79 l-89 -73 29 -31 c53 -59 68 -73 131 -125 35
-29 77 -59 95 -68 18 -9 34 -20 37 -23 15 -19 166 -80 245 -100 22 -6 54 -13
70 -18 48 -12 1773 -15 1780 -3 3 5 2 10 -2 10 -5 0 -23 13 -40 28 -17 16 -53
46 -79 68 -27 21 -51 42 -54 45 -3 4 -49 43 -104 88 -54 45 -104 87 -112 94
-7 7 -19 17 -26 22 -55 43 -264 221 -266 227 -2 4 -10 8 -17 8 -7 0 -15 3 -17
8 -1 4 -43 41 -93 82 -49 41 -95 80 -101 85 -6 6 -26 21 -43 35 -18 14 -41 32
-51 42 -18 16 -225 182 -245 196 -5 4 -23 13 -40 21 -16 7 -37 17 -45 21 -8 4
-38 7 -66 7 -41 1 -70 -8 -139 -42z"/>
</g>
</svg>
